<?xml version="1.0" encoding="UTF-8" standalone="no"?>
<!DOCTYPE svg PUBLIC "-//W3C//DTD SVG 1.1//EN" "http://www.w3.org/Graphics/SVG/1.1/DTD/svg11.dtd">
<!-- Generated by graphviz version 2.40.1 (20161225.0304)
 -->
<!-- Title: G Pages: 1 -->
<svg width="206pt" height="404pt" viewBox="0.00 0.00 206.00 404.00" xmlns="http://www.w3.org/2000/svg" xmlns:xlink="http://www.w3.org/1999/xlink">
<g id="graph0" class="graph" transform="scale(1 1) rotate(0) translate(4 400)">
<title>G</title>
<polygon fill="#ffffff" stroke="transparent" points="-4,4 -4,-400 202,-400 202,4 -4,4"/>
<!-- 1 -->
<g id="node1" class="node">
<title>1</title>
<ellipse fill="none" stroke="#000000" cx="27" cy="-378" rx="27" ry="18"/>
<text text-anchor="middle" x="27" y="-373.8" font-family="Times,serif" font-size="14.00" fill="#000000">1</text>
</g>
<!-- 2 -->
<g id="node2" class="node">
<title>2</title>
<ellipse fill="none" stroke="#000000" cx="27" cy="-306" rx="27" ry="18"/>
<text text-anchor="middle" x="27" y="-301.8" font-family="Times,serif" font-size="14.00" fill="#000000">2</text>
</g>
<!-- 1&#45;&#45;2 -->
<g id="edge1" class="edge">
<title>1--2</title>
<path fill="none" stroke="#000000" d="M27,-359.8314C27,-349 27,-335.2876 27,-324.4133"/>
</g>
<!-- 4 -->
<g id="node3" class="node">
<title>4</title>
<ellipse fill="none" stroke="#000000" cx="27" cy="-234" rx="27" ry="18"/>
<text text-anchor="middle" x="27" y="-229.8" font-family="Times,serif" font-size="14.00" fill="#000000">4</text>
</g>
<!-- 2&#45;&#45;4 -->
<g id="edge2" class="edge">
<title>2--4</title>
<path fill="none" stroke="#000000" d="M27,-287.8314C27,-277 27,-263.2876 27,-252.4133"/>
</g>
<!-- 6 -->
<g id="node5" class="node">
<title>6</title>
<ellipse fill="none" stroke="#000000" cx="63" cy="-162" rx="27" ry="18"/>
<text text-anchor="middle" x="63" y="-157.8" font-family="Times,serif" font-size="14.00" fill="#000000">6</text>
</g>
<!-- 4&#45;&#45;6 -->
<g id="edge4" class="edge">
<title>4--6</title>
<path fill="none" stroke="#000000" d="M35.7146,-216.5708C41.3747,-205.2506 48.7216,-190.5568 54.3657,-179.2687"/>
</g>
<!-- 3 -->
<g id="node4" class="node">
<title>3</title>
<ellipse fill="none" stroke="#000000" cx="99" cy="-234" rx="27" ry="18"/>
<text text-anchor="middle" x="99" y="-229.8" font-family="Times,serif" font-size="14.00" fill="#000000">3</text>
</g>
<!-- 3&#45;&#45;6 -->
<g id="edge3" class="edge">
<title>3--6</title>
<path fill="none" stroke="#000000" d="M90.2854,-216.5708C84.6253,-205.2506 77.2784,-190.5568 71.6343,-179.2687"/>
</g>
<!-- 7 -->
<g id="node7" class="node">
<title>7</title>
<ellipse fill="none" stroke="#000000" cx="99" cy="-90" rx="27" ry="18"/>
<text text-anchor="middle" x="99" y="-85.8" font-family="Times,serif" font-size="14.00" fill="#000000">7</text>
</g>
<!-- 6&#45;&#45;7 -->
<g id="edge6" class="edge">
<title>6--7</title>
<path fill="none" stroke="#000000" d="M71.7146,-144.5708C77.3747,-133.2506 84.7216,-118.5568 90.3657,-107.2687"/>
</g>
<!-- 5 -->
<g id="node6" class="node">
<title>5</title>
<ellipse fill="none" stroke="#000000" cx="135" cy="-162" rx="27" ry="18"/>
<text text-anchor="middle" x="135" y="-157.8" font-family="Times,serif" font-size="14.00" fill="#000000">5</text>
</g>
<!-- 5&#45;&#45;7 -->
<g id="edge5" class="edge">
<title>5--7</title>
<path fill="none" stroke="#000000" d="M126.2854,-144.5708C120.6253,-133.2506 113.2784,-118.5568 107.6343,-107.2687"/>
</g>
<!-- 9 -->
<g id="node8" class="node">
<title>9</title>
<ellipse fill="none" stroke="#000000" cx="135" cy="-18" rx="27" ry="18"/>
<text text-anchor="middle" x="135" y="-13.8" font-family="Times,serif" font-size="14.00" fill="#000000">9</text>
</g>
<!-- 7&#45;&#45;9 -->
<g id="edge7" class="edge">
<title>7--9</title>
<path fill="none" stroke="#000000" d="M107.7146,-72.5708C113.3747,-61.2506 120.7216,-46.5568 126.3657,-35.2687"/>
</g>
<!-- 8 -->
<g id="node9" class="node">
<title>8</title>
<ellipse fill="none" stroke="#000000" cx="171" cy="-90" rx="27" ry="18"/>
<text text-anchor="middle" x="171" y="-85.8" font-family="Times,serif" font-size="14.00" fill="#000000">8</text>
</g>
<!-- 8&#45;&#45;9 -->
<g id="edge8" class="edge">
<title>8--9</title>
<path fill="none" stroke="#000000" d="M162.2854,-72.5708C156.6253,-61.2506 149.2784,-46.5568 143.6343,-35.2687"/>
</g>
</g>
</svg>